<svg width="50" height="66" viewBox="0 0 50 66" fill="none" xmlns="http://www.w3.org/2000/svg">
<path d="M25 65.641C24.4378 65.641 23.9038 65.395 23.5386 64.9678C23.3103 64.701 17.9487 58.3432 17.9487 50.641C17.9487 49.579 18.8097 48.718 19.8718 48.718H30.1282C31.1903 48.718 32.0513 49.579 32.0513 50.641C32.0513 58.3432 26.6897 64.701 26.4614 64.9678C26.0961 65.395 25.5622 65.641 25 65.641Z" fill="#FFE196"/>
<path d="M30.1282 48.718H25V65.641C25.5622 65.641 26.0962 65.395 26.4614 64.9678C26.6897 64.701 32.0513 58.3432 32.0513 50.641C32.0513 49.579 31.1903 48.718 30.1282 48.718Z" fill="#FFB454"/>
<path d="M40.9372 33.5427L34.5709 31.6328C34.6008 30.6762 34.6154 29.7551 34.6154 28.8462C34.6154 24.1741 34.2824 19.6704 33.6562 15.6604L25 13.0963L16.3438 15.6604C15.7176 19.6704 15.3846 24.1741 15.3846 28.8462C15.3846 29.7551 15.3992 30.6762 15.4291 31.6327L9.06282 33.5426C8.24936 33.7867 7.69231 34.5354 7.69231 35.3846V44.2308C7.69231 45.2928 8.55333 46.1538 9.61538 46.1538H14.7237L16.8042 51.3553C17.0963 52.0854 17.8033 52.5641 18.5897 52.5641H31.4103C32.1967 52.5641 32.9037 52.0854 33.1958 51.3553L35.2763 46.1538H40.3846C41.4467 46.1538 42.3077 45.2928 42.3077 44.2308V35.3846C42.3077 34.5354 41.7506 33.7867 40.9372 33.5427Z" fill="#F9F9F9"/>
<path d="M40.9372 33.5427L34.5709 31.6328C34.6008 30.6762 34.6154 29.7551 34.6154 28.8462C34.6154 24.1741 34.2824 19.6704 33.6562 15.6604L25 13.0963V52.5641H31.4103C32.1967 52.5641 32.9037 52.0854 33.1958 51.3553L35.2763 46.1538H40.3846C41.4467 46.1538 42.3077 45.2928 42.3077 44.2308V35.3846C42.3077 34.5354 41.7506 33.7867 40.9372 33.5427Z" fill="#E4E4FF"/>
<path d="M25 17.9487C27.6253 17.9487 30.1687 17.3583 32.5596 16.1942L33.6562 15.6603C33.2951 13.3487 32.8371 11.2006 32.2883 9.28026C30.529 3.12231 28.0768 0 25 0C21.9232 0 19.471 3.12231 17.7117 9.28038C17.163 11.2008 16.7049 13.3488 16.3439 15.6604L17.4404 16.1944C19.8313 17.3583 22.3746 17.9487 25 17.9487Z" fill="#FF6378"/>
<path d="M32.2883 9.28038C30.529 3.12231 28.0768 0 25 0V17.9487C27.6253 17.9487 30.1687 17.3583 32.5596 16.1942L33.6562 15.6603C33.2951 13.3488 32.8371 11.2008 32.2883 9.28038Z" fill="#D0004F"/>
<path d="M25 34.6154C23.9379 34.6154 23.0769 33.7544 23.0769 32.6923V25C23.0769 23.9379 23.9379 23.0769 25 23.0769C26.062 23.0769 26.9231 23.9379 26.9231 25V32.6923C26.9231 33.7544 26.062 34.6154 25 34.6154Z" fill="#524798"/>
<path d="M48.0769 44.8718H40.3846C39.3226 44.8718 38.4615 44.0108 38.4615 42.9487V31.7214C38.4615 27.7003 40.0274 23.9196 42.8709 21.0762C43.2315 20.7154 43.7207 20.5128 44.2308 20.5128C44.7408 20.5128 45.2299 20.7154 45.5906 21.0762C48.4341 23.9196 50 27.7001 50 31.7214V42.9487C50 44.0108 49.139 44.8718 48.0769 44.8718Z" fill="#B7B4E7"/>
<path d="M38.4615 42.9487V50.641C38.4615 51.7031 39.3226 52.5641 40.3846 52.5641H48.0769C49.139 52.5641 50 51.7031 50 50.641V42.9487H38.4615Z" fill="#D0004F"/>
<path d="M9.61538 44.8718H1.92308C0.861026 44.8718 0 44.0108 0 42.9487V31.7214C0 27.7003 1.5659 23.9196 4.40936 21.0762C4.77 20.7154 5.2591 20.5128 5.76923 20.5128C6.27923 20.5128 6.76833 20.7154 7.1291 21.0762C9.97256 23.9196 11.5385 27.7001 11.5385 31.7214V42.9487C11.5385 44.0108 10.6774 44.8718 9.61538 44.8718Z" fill="#E4E4FF"/>
<path d="M0 42.9487V50.641C0 51.7031 0.861026 52.5641 1.92308 52.5641H9.61538C10.6774 52.5641 11.5385 51.7031 11.5385 50.641V42.9487H0Z" fill="#FF6378"/>
<path d="M25 23.0769V34.6154C26.0621 34.6154 26.9231 33.7544 26.9231 32.6923V25C26.9231 23.9379 26.0621 23.0769 25 23.0769Z" fill="#38336B"/>
</svg>
