<svg width="75" height="50" viewBox="0 0 75 50" fill="none" xmlns="http://www.w3.org/2000/svg">
<path d="M68.11 41.5832H6.88924L1.02521 30.9795L18.6173 20.3794H56.382L73.974 30.9813L68.11 41.5832Z" fill="#2D3C6B"/>
<path d="M56.382 20.3794V19.9106C56.3823 17.4307 55.8942 14.975 54.9455 12.6838C53.9967 10.3925 52.6059 8.31063 50.8525 6.55693C49.0991 4.80323 47.0174 3.41211 44.7263 2.463C42.4352 1.51389 39.9795 1.02539 37.4996 1.02539C32.4917 1.02539 27.6889 3.01477 24.1478 6.5559C20.6067 10.097 18.6173 14.8998 18.6173 19.9077V20.3765L56.382 20.3794Z" fill="#FA800F"/>
<path d="M49.3554 15.546C49.1588 15.5461 48.9662 15.4895 48.8008 15.3831C48.6354 15.2767 48.5041 15.125 48.4226 14.946C47.4654 12.8515 45.9276 11.0754 43.9916 9.82834C42.0555 8.58128 39.8025 7.91556 37.4996 7.91011C37.2277 7.91011 36.9669 7.80208 36.7746 7.60979C36.5823 7.41749 36.4742 7.15668 36.4742 6.88473C36.4742 6.61278 36.5823 6.35197 36.7746 6.15967C36.9669 5.96738 37.2277 5.85934 37.4996 5.85934C40.1956 5.86528 42.8333 6.64427 45.0999 8.10393C47.3665 9.5636 49.1669 11.6427 50.2876 14.0947C50.3586 14.2508 50.3894 14.4223 50.377 14.5935C50.3646 14.7646 50.3096 14.9299 50.2168 15.0742C50.1241 15.2186 49.9967 15.3374 49.8462 15.4198C49.6957 15.5022 49.527 15.5456 49.3554 15.546V15.546Z" fill="#EFE1CB"/>
<path d="M37.4996 35.667C40.0884 35.667 42.1871 33.5683 42.1871 30.9795C42.1871 28.3907 40.0884 26.2921 37.4996 26.2921C34.9108 26.2921 32.8121 28.3907 32.8121 30.9795C32.8121 33.5683 34.9108 35.667 37.4996 35.667Z" fill="#FFC839"/>
<path d="M52.7046 34.2004C54.4835 34.2004 55.9255 32.7584 55.9255 30.9795C55.9255 29.2007 54.4835 27.7586 52.7046 27.7586C50.9258 27.7586 49.4837 29.2007 49.4837 30.9795C49.4837 32.7584 50.9258 34.2004 52.7046 34.2004Z" fill="#FFC839"/>
<path d="M22.2946 34.2004C24.0735 34.2004 25.5155 32.7584 25.5155 30.9795C25.5155 29.2007 24.0735 27.7586 22.2946 27.7586C20.5158 27.7586 19.0737 29.2007 19.0737 30.9795C19.0737 32.7584 20.5158 34.2004 22.2946 34.2004Z" fill="#FFC839"/>
<path d="M55.4023 48.7791H19.5964L13.7324 41.5832H61.2663L55.4023 48.7791Z" fill="#73C3F9"/>
<path d="M35.1741 40.5578H31.7428C31.4709 40.5578 31.2101 40.6658 31.0178 40.8581C30.8255 41.0504 30.7174 41.3112 30.7174 41.5832C30.7174 41.8551 30.8255 42.1159 31.0178 42.3082C31.2101 42.5005 31.4709 42.6086 31.7428 42.6086H35.1741C35.446 42.6086 35.7068 42.5005 35.8991 42.3082C36.0914 42.1159 36.1994 41.8551 36.1994 41.5832C36.1994 41.3112 36.0914 41.0504 35.8991 40.8581C35.7068 40.6658 35.446 40.5578 35.1741 40.5578V40.5578Z" fill="#FCF9F0"/>
<path d="M74.5032 30.103L57.4032 19.7976C57.39 15.8734 56.2141 12.0412 54.0241 8.78505C51.8341 5.52888 48.7281 2.9948 45.0986 1.50292C44.9738 1.44927 44.8395 1.42098 44.7036 1.41969C44.5677 1.4184 44.4329 1.44413 44.307 1.4954C44.1812 1.54666 44.0668 1.62243 43.9704 1.71831C43.8741 1.81419 43.7978 1.92825 43.746 2.05388C43.6941 2.1795 43.6678 2.31418 43.6685 2.45007C43.6691 2.58597 43.6968 2.72038 43.7499 2.84549C43.803 2.9706 43.8804 3.08391 43.9776 3.17883C44.0749 3.27375 44.19 3.3484 44.3164 3.39842C47.5007 4.70696 50.2375 6.9105 52.1953 9.7423C54.1532 12.5741 55.2482 15.9127 55.3478 19.354H19.6515C19.8006 14.7179 21.7457 10.3213 25.0761 7.09268C28.4064 3.86403 32.8612 2.05613 37.4996 2.05077C37.7716 2.05077 38.0324 1.94274 38.2247 1.75044C38.417 1.55814 38.525 1.29733 38.525 1.02539C38.525 0.753436 38.417 0.492626 38.2247 0.300329C38.0324 0.108032 37.7716 0 37.4996 0C32.2408 0.00622729 27.1976 2.0908 23.4691 5.79941C19.7407 9.50801 17.6292 14.54 17.5949 19.7987L0.496119 30.1012C0.268831 30.2382 0.103498 30.4579 0.034877 30.7143C-0.0337443 30.9706 -0.000309745 31.2436 0.128152 31.4758L5.99218 42.0812C6.08091 42.2413 6.21094 42.3746 6.36871 42.4674C6.52648 42.5601 6.70624 42.6089 6.88925 42.6086H13.2455L18.8019 49.4265C18.8979 49.5446 19.0191 49.6398 19.1565 49.7051C19.2939 49.7705 19.4442 49.8044 19.5964 49.8044H55.4029C55.5551 49.8044 55.7053 49.7705 55.8428 49.7051C55.9802 49.6398 56.1014 49.5446 56.1974 49.4265L61.7538 42.6086H68.11C68.293 42.6088 68.4728 42.56 68.6305 42.4673C68.7883 42.3746 68.9183 42.2413 69.0071 42.0812L74.8711 31.4793C75.0001 31.247 75.0339 30.9736 74.9652 30.7168C74.8966 30.46 74.7309 30.24 74.5032 30.103V30.103ZM67.5053 40.5578H44.6223C44.3503 40.5578 44.0895 40.6658 43.8972 40.8581C43.7049 41.0504 43.5969 41.3112 43.5969 41.5832C43.5969 41.8551 43.7049 42.1159 43.8972 42.3082C44.0895 42.5005 44.3503 42.6086 44.6223 42.6086H59.1083L54.9159 47.7537H20.0833L15.891 42.6086H22.2946C22.5666 42.6086 22.8274 42.5005 23.0197 42.3082C23.212 42.1159 23.32 41.8551 23.32 41.5832C23.32 41.3112 23.212 41.0504 23.0197 40.8581C22.8274 40.6658 22.5666 40.5578 22.2946 40.5578H7.49393L2.40216 31.3475L18.9038 21.4042H56.0966L72.5971 31.3475L67.5053 40.5578Z" fill="#FCF9F0"/>
<path d="M36.4742 6.88473C36.4742 7.15668 36.5823 7.41749 36.7746 7.60979C36.9669 7.80208 37.2277 7.91011 37.4996 7.91011C39.8025 7.91556 42.0555 8.58128 43.9916 9.82834C45.9276 11.0754 47.4654 12.8515 48.4226 14.946C48.5355 15.1933 48.742 15.3857 48.9967 15.4807C49.2515 15.5758 49.5335 15.5657 49.7808 15.4528C50.0281 15.34 50.2205 15.1334 50.3155 14.8787C50.4106 14.624 50.4005 14.342 50.2876 14.0947C49.1669 11.6427 47.3665 9.5636 45.0999 8.10393C42.8333 6.64427 40.1956 5.86528 37.4996 5.85934C37.2277 5.85934 36.9669 5.96738 36.7746 6.15967C36.5823 6.35197 36.4742 6.61278 36.4742 6.88473V6.88473Z" fill="#FCF9F0"/>
<path d="M37.4996 25.2667C36.3697 25.2667 35.2652 25.6017 34.3257 26.2295C33.3863 26.8572 32.654 27.7494 32.2216 28.7933C31.7892 29.8372 31.6761 30.9859 31.8965 32.094C32.117 33.2022 32.6611 34.2202 33.46 35.0191C34.259 35.8181 35.2769 36.3622 36.3851 36.5826C37.4933 36.803 38.642 36.6899 39.6859 36.2575C40.7297 35.8251 41.622 35.0929 42.2497 34.1534C42.8774 33.2139 43.2125 32.1094 43.2125 30.9795C43.2108 29.4649 42.6084 28.0128 41.5374 26.9418C40.4664 25.8708 39.0143 25.2684 37.4996 25.2667ZM37.4996 34.6416C36.7753 34.6416 36.0673 34.4268 35.4651 34.0244C34.8629 33.622 34.3935 33.0501 34.1163 32.3809C33.8391 31.7118 33.7666 30.9755 33.9079 30.2651C34.0492 29.5547 34.398 28.9022 34.9101 28.39C35.4223 27.8779 36.0748 27.5291 36.7852 27.3878C37.4956 27.2465 38.2319 27.319 38.9011 27.5962C39.5702 27.8734 40.1422 28.3427 40.5446 28.945C40.9469 29.5472 41.1617 30.2552 41.1617 30.9795C41.1606 31.9504 40.7745 32.8813 40.0879 33.5678C39.4014 34.2543 38.4706 34.6405 37.4996 34.6416V34.6416Z" fill="#FCF9F0"/>
<path d="M52.7046 26.7333C51.8649 26.7336 51.0441 26.983 50.346 27.4498C49.6479 27.9166 49.104 28.5798 48.7828 29.3558C48.4617 30.1317 48.3779 30.9854 48.5419 31.809C48.706 32.6326 49.1105 33.3891 49.7044 33.9827C50.2984 34.5764 51.055 34.9806 51.8786 35.1443C52.7023 35.308 53.556 35.2239 54.3318 34.9024C55.1076 34.581 55.7706 34.0367 56.2371 33.3385C56.7037 32.6402 56.9526 31.8193 56.9526 30.9795C56.9514 29.8534 56.5034 28.7738 55.707 27.9777C54.9105 27.1816 53.8307 26.7341 52.7046 26.7333ZM52.7046 33.175C52.2705 33.1747 51.8462 33.0456 51.4854 32.8042C51.1245 32.5627 50.8434 32.2197 50.6775 31.8185C50.5116 31.4173 50.4684 30.9759 50.5533 30.5501C50.6382 30.1244 50.8474 29.7333 51.1546 29.4265C51.4617 29.1196 51.8529 28.9107 52.2787 28.8261C52.7045 28.7415 53.1459 28.7851 53.547 28.9513C53.948 29.1176 54.2908 29.399 54.532 29.76C54.7732 30.121 54.9019 30.5454 54.9019 30.9795C54.9013 31.5619 54.6695 32.1203 54.2575 32.5319C53.8455 32.9436 53.287 33.1749 52.7046 33.175V33.175Z" fill="#FCF9F0"/>
<path d="M22.2946 26.7333C21.4549 26.7336 20.6341 26.983 19.936 27.4498C19.2379 27.9166 18.694 28.5798 18.3728 29.3558C18.0517 30.1317 17.9679 30.9854 18.1319 31.809C18.296 32.6326 18.7005 33.3891 19.2944 33.9827C19.8884 34.5764 20.645 34.9806 21.4686 35.1443C22.2923 35.308 23.146 35.2239 23.9218 34.9024C24.6976 34.581 25.3606 34.0367 25.8271 33.3385C26.2937 32.6402 26.5426 31.8193 26.5426 30.9795C26.5414 29.8534 26.0934 28.7738 25.297 27.9777C24.5005 27.1816 23.4207 26.7341 22.2946 26.7333ZM22.2946 33.175C21.8605 33.1747 21.4362 33.0456 21.0753 32.8042C20.7145 32.5627 20.4334 32.2197 20.2675 31.8185C20.1016 31.4173 20.0584 30.9759 20.1433 30.5501C20.2282 30.1244 20.4374 29.7333 20.7445 29.4265C21.0517 29.1196 21.4429 28.9107 21.8687 28.8261C22.2945 28.7415 22.7359 28.7851 23.137 28.9513C23.538 29.1176 23.8808 29.399 24.122 29.76C24.3632 30.121 24.4919 30.5454 24.4919 30.9795C24.4913 31.5619 24.2595 32.1203 23.8475 32.5319C23.4355 32.9436 22.877 33.1749 22.2946 33.175V33.175Z" fill="#FCF9F0"/>
</svg>
