<svg width="18" height="23" viewBox="0 0 18 23" fill="none" xmlns="http://www.w3.org/2000/svg">
<g filter="url(#filter0_f)">
<path d="M9 4C6.23571 4 4 6.3475 4 9.25C4 13.1875 9 19 9 19C9 19 14 13.1875 14 9.25C14 6.3475 11.7643 4 9 4ZM9 11.125C8.01429 11.125 7.21429 10.285 7.21429 9.25C7.21429 8.215 8.01429 7.375 9 7.375C9.98571 7.375 10.7857 8.215 10.7857 9.25C10.7857 10.285 9.98571 11.125 9 11.125Z" fill="black"/>
</g>
<path d="M9 4C6.23571 4 4 6.3475 4 9.25C4 13.1875 9 19 9 19C9 19 14 13.1875 14 9.25C14 6.3475 11.7643 4 9 4ZM9 11.125C8.01429 11.125 7.21429 10.285 7.21429 9.25C7.21429 8.215 8.01429 7.375 9 7.375C9.98571 7.375 10.7857 8.215 10.7857 9.25C10.7857 10.285 9.98571 11.125 9 11.125Z" fill="#FFC839"/>
<defs>
<filter id="filter0_f" x="0" y="0" width="18" height="23" filterUnits="userSpaceOnUse" color-interpolation-filters="sRGB">
<feFlood flood-opacity="0" result="BackgroundImageFix"/>
<feBlend mode="normal" in="SourceGraphic" in2="BackgroundImageFix" result="shape"/>
<feGaussianBlur stdDeviation="2" result="effect1_foregroundBlur"/>
</filter>
</defs>
</svg>
